<?xml version="1.0" encoding="UTF-8"?>
<svg version="1.1" xmlns="http://www.w3.org/2000/svg" width="512" height="512">
<path d="M0 0 C19.37115368 16.64041836 31.89714881 36.0650185 38.3125 60.6875 C38.68181641 62.08742187 38.68181641 62.08742187 39.05859375 63.515625 C45.08728997 91.95444028 37.89205062 121.65947984 22.3125 145.6875 C5.99606746 168.21257507 -16.00550487 182.73554557 -42.6875 189.6875 C-44.08742188 190.05681641 -44.08742188 190.05681641 -45.515625 190.43359375 C-73.95444028 196.46228997 -103.65947984 189.26705062 -127.6875 173.6875 C-150.21257507 157.37106746 -164.73554557 135.36949513 -171.6875 108.6875 C-171.93371094 107.75421875 -172.17992187 106.8209375 -172.43359375 105.859375 C-178.46228997 77.42055972 -171.26705062 47.71552016 -155.6875 23.6875 C-139.37106746 1.16242493 -117.36949513 -13.36054557 -90.6875 -20.3125 C-89.75421875 -20.55871094 -88.8209375 -20.80492187 -87.859375 -21.05859375 C-57.52573641 -27.48897035 -24.1306824 -19.16763424 0 0 Z M-108.6875 36.6875 C-109.40421875 37.29207031 -110.1209375 37.89664063 -110.859375 38.51953125 C-121.06604791 47.91520883 -128.82462941 62.08099789 -129.86450195 76.06835938 C-130.15176141 87.61367192 -130.35534883 97.92849106 -125.6875 108.6875 C-125.32527344 109.56277344 -124.96304688 110.43804687 -124.58984375 111.33984375 C-117.55435408 126.81792103 -104.20591767 138.52598774 -88.625 144.9375 C-71.60081734 150.65224679 -53.57366431 149.49249822 -37.44677734 141.62646484 C-21.97860536 133.37076273 -11.16718063 119.56405607 -5.44921875 103.23046875 C-1.43148992 89.81743559 -2.12876839 73.49992073 -7.6875 60.6875 C-8.23083984 59.37458984 -8.23083984 59.37458984 -8.78515625 58.03515625 C-15.36066689 43.56903285 -27.46140122 32.44875804 -41.6875 25.6875 C-65.19805707 16.9208516 -89.48258021 20.42526953 -108.6875 36.6875 Z " fill="#000000" transform="translate(322.6875,171.3125)"/>
<path d="M0 0 C5.74841562 3.32865134 9.60440035 8.15992367 11.6875 14.4375 C12.05859375 16.98046875 12.05859375 16.98046875 12.125 19.625 C12.18494141 20.91470703 12.18494141 20.91470703 12.24609375 22.23046875 C10.66934572 31.28298716 5.21737778 37.65137688 -1.25 43.8125 C-2.28543945 44.83923828 -2.28543945 44.83923828 -3.34179688 45.88671875 C-9.94122721 52.32976448 -16.00271163 57.20706884 -25.54296875 57.5078125 C-32.64912168 57.0919619 -37.5955529 54.0810161 -42.625 49.1875 C-46.32376002 43.15989108 -47.80447747 37.71386416 -46.9296875 30.67578125 C-44.81949614 23.02299868 -39.61905405 18.0393313 -34.3125 12.4375 C-33.57386719 11.6228125 -32.83523437 10.808125 -32.07421875 9.96875 C-23.42971366 0.75613357 -12.63400767 -5.5348986 0 0 Z " fill="#000000" transform="translate(145.3125,356.5625)"/>
<path d="M0 0 C3.52528113 2.79108109 6.73683248 5.90883679 10 9 C10.8146875 9.73863281 11.629375 10.47726563 12.46875 11.23828125 C19.28068538 17.63014728 24.13791145 24.01868412 24.5625 33.625 C24.1809528 40.74386743 21.83011577 45.60194204 16.5625 50.375 C12.39667935 53.83524082 8.21362847 55.30187344 2.8125 55.4375 C1.95269531 55.47746094 1.09289062 55.51742187 0.20703125 55.55859375 C-8.84548716 53.98184572 -15.21387688 48.52987778 -21.375 42.0625 C-22.05949219 41.37220703 -22.74398437 40.68191406 -23.44921875 39.97070312 C-29.51417854 33.75853558 -34.80093983 27.75698679 -35.0703125 18.61328125 C-34.67623337 11.04464392 -31.97906885 6.06182077 -26.75 0.6875 C-17.60275985 -4.92557918 -9.37674661 -5.26837825 0 0 Z " fill="#000000" transform="translate(133,102)"/>
<path d="M0 0 C0.85980469 -0.03996094 1.71960938 -0.07992188 2.60546875 -0.12109375 C11.65798716 1.45565428 18.02637688 6.90762222 24.1875 13.375 C24.87199219 14.06529297 25.55648437 14.75558594 26.26171875 15.46679688 C32.70476448 22.06622721 37.58206884 28.12771163 37.8828125 37.66796875 C37.4669619 44.77412168 34.4560161 49.7205529 29.5625 54.75 C23.53489108 58.44876002 18.08886416 59.92947747 11.05078125 59.0546875 C3.39799868 56.94449614 -1.5856687 51.74405405 -7.1875 46.4375 C-8.40953125 45.32955078 -8.40953125 45.32955078 -9.65625 44.19921875 C-16.46818538 37.80735272 -21.32541145 31.41881588 -21.75 21.8125 C-21.3684528 14.69363257 -19.01761577 9.83555796 -13.75 5.0625 C-9.58417935 1.60225918 -5.40112847 0.13562656 0 0 Z " fill="#000000" transform="translate(376.1875,354.5625)"/>
<path d="M0 0 C5.10471501 4.08377201 7.47430886 9.04994792 8.71875 15.375 C8.98725191 24.96209751 4.50275018 30.99432372 -1.82421875 37.78125 C-2.63503906 38.6371875 -3.44585937 39.493125 -4.28125 40.375 C-5.01988281 41.1896875 -5.75851562 42.004375 -6.51953125 42.84375 C-12.91139728 49.65568538 -19.29993412 54.51291145 -28.90625 54.9375 C-36.02511743 54.5559528 -40.88319204 52.20511577 -45.65625 46.9375 C-49.11649082 42.77167935 -50.58312344 38.58862847 -50.71875 33.1875 C-50.75871094 32.32769531 -50.79867188 31.46789062 -50.83984375 30.58203125 C-49.26309572 21.52951284 -43.81112778 15.16112312 -37.34375 9 C-36.30831055 7.97326172 -36.30831055 7.97326172 -35.25195312 6.92578125 C-25.01430089 -3.06927259 -13.10700679 -9.15409998 0 0 Z " fill="#000000" transform="translate(405.28125,102.625)"/>
<path d="M0 0 C1.28132813 -0.02900391 2.56265625 -0.05800781 3.8828125 -0.08789062 C12.22109854 -0.14342224 20.33986483 0.20729243 26.80908203 6.06323242 C32.23029985 11.90283235 33.34145036 17.47246291 33.1875 25.3046875 C32.56668548 31.28002727 30.26741519 34.88843901 26.125 39.125 C17.75386283 44.75941925 10.23268476 44.77684457 0.375 44.6875 C-0.90503906 44.69910156 -2.18507813 44.71070313 -3.50390625 44.72265625 C-12.61856427 44.69437913 -20.35735051 44.08014949 -27.125 37.3125 C-31.36031064 31.18846975 -32.87988863 25.74006487 -32.125 18.3125 C-30.70932013 12.66018993 -28.37702797 7.56156607 -23.453125 4.15625 C-15.80359276 -0.42039322 -8.71633693 0.06459736 0 0 Z " fill="#000000" transform="translate(74.125,233.6875)"/>
<path d="M0 0 C7.94430109 7.94430109 7.48403818 16.78788524 7.5625 27.375 C7.59150391 28.65632813 7.62050781 29.93765625 7.65039062 31.2578125 C7.70592224 39.59609854 7.35520757 47.71486483 1.49926758 54.18408203 C-4.34033235 59.60529985 -9.90996291 60.71645036 -17.7421875 60.5625 C-23.71752727 59.94168548 -27.32593901 57.64241519 -31.5625 53.5 C-37.19691925 45.12886283 -37.21434457 37.60768476 -37.125 27.75 C-37.13660156 26.46996094 -37.14820313 25.18992187 -37.16015625 23.87109375 C-37.13187913 14.75643573 -36.51764949 7.01764949 -29.75 0.25 C-19.91568315 -6.55130324 -9.93984913 -6.32535854 0 0 Z " fill="#000000" transform="translate(270.75,46.75)"/>
<path d="M0 0 C5.49987846 3.26341336 8.78108287 7.81045048 10.94506836 13.80175781 C12.28643934 19.39212956 11.98930131 25.15958906 11.9375 30.875 C11.94910156 32.15503906 11.96070313 33.43507813 11.97265625 34.75390625 C11.94715566 42.97359751 11.7299331 49.6083228 6.25 56.125 C0.04822254 61.31718578 -4.16705831 63.71469001 -12.28515625 63.59375 C-18.13853207 62.99885155 -23.28680808 60.52569192 -27.4375 56.375 C-33.05827238 48.24766696 -32.67889342 40.84464831 -32.75 31.25 C-32.79350586 29.32800781 -32.79350586 29.32800781 -32.83789062 27.3671875 C-32.89342224 19.02890146 -32.54270757 10.91013517 -26.68676758 4.44091797 C-19.44397555 -2.2829593 -9.15633813 -4.17779687 0 0 Z " fill="#000000" transform="translate(266.4375,406.625)"/>
<path d="M0 0 C1.28003906 -0.01160156 2.56007813 -0.02320313 3.87890625 -0.03515625 C12.99356427 -0.00687913 20.73235051 0.60735051 27.5 7.375 C31.74034841 13.50631459 33.24199672 18.94154192 32.5 26.375 C30.83419903 33.49728287 27.3082004 37.31183236 21.4375 41.625 C14.93089713 45.50127405 7.75487581 44.63280724 0.375 44.6875 C-0.90632813 44.71650391 -2.18765625 44.74550781 -3.5078125 44.77539062 C-11.84609854 44.83092224 -19.96486483 44.48020757 -26.43408203 38.62426758 C-31.85529985 32.78466765 -32.96645036 27.21503709 -32.8125 19.3828125 C-32.19168548 13.40747273 -29.89241519 9.79906099 -25.75 5.5625 C-17.37886283 -0.07191925 -9.85768476 -0.08934457 0 0 Z " fill="#000000" transform="translate(437.5,233.625)"/>
</svg>
