<?xml version="1.0" encoding="UTF-8"?>
<svg version="1.1" xmlns="http://www.w3.org/2000/svg" width="512" height="512">
<path d="M0 0 C4.43703067 4.21517914 6.87111782 7.83009651 7.53344727 14.01513672 C7.46643047 18.74348939 5.77238037 23.1068197 4.3125 27.5625 C-13.09394641 83.97892377 -6.51199477 142.9219757 20.71337891 195.1171875 C27.61747251 207.70645028 35.97787495 219.62654067 45.5 230.375 C46.20125 231.18453125 46.9025 231.9940625 47.625 232.828125 C83.26100928 273.30044982 132.0147292 298.03656611 185.5 304.375 C187.07007813 304.57222656 187.07007813 304.57222656 188.671875 304.7734375 C216.27167491 307.65816235 244.91874878 304.05463661 271.36328125 295.90625 C272.12761475 295.67083496 272.89194824 295.43541992 273.67944336 295.19287109 C275.08308578 294.74991132 276.48179546 294.29079086 277.87329102 293.81103516 C282.90639043 292.18011177 286.40577068 292.36576589 291.5 293.375 C296.28254033 295.8582421 299.22209954 298.46875286 301.5 303.375 C302.57093753 312.14915774 300.71014885 319.00432057 297.125 326.9375 C296.44606689 328.49331787 296.44606689 328.49331787 295.75341797 330.08056641 C283.80078945 357.05367858 267.96705303 381.10151757 247.5 402.375 C246.90026367 403.00196777 246.30052734 403.62893555 245.68261719 404.27490234 C236.84281682 413.4683837 227.7862633 421.83545334 217.5 429.375 C216.64607666 430.01211914 216.64607666 430.01211914 215.77490234 430.66210938 C163.26505855 469.80392696 96.83775428 485.91052581 32.125 476.6875 C-28.56464805 467.37508178 -86.50527957 436.25469439 -124.5 387.375 C-125.28761719 386.39273437 -126.07523438 385.41046875 -126.88671875 384.3984375 C-166.6169259 334.46670058 -185.11588052 268.58694629 -178.15234375 205.2109375 C-170.44129373 141.27660041 -139.72513185 80.65998869 -89.10449219 39.85009766 C-86.82436764 38.07015854 -84.51743442 36.33116335 -82.18701172 34.61767578 C-80.52898451 33.39635039 -78.89123502 32.15122084 -77.25390625 30.90234375 C-62.29843585 19.6774089 -45.59613821 10.85814329 -28.5 3.375 C-26.75783203 2.58416016 -26.75783203 2.58416016 -24.98046875 1.77734375 C-16.70879012 -1.74523351 -8.49249735 -3.9429452 0 0 Z M-80.5 77.375 C-81.29470703 78.12885986 -81.29470703 78.12885986 -82.10546875 78.89794922 C-112.18608748 107.55849124 -131.97630267 145.39555378 -141.3125 185.6875 C-141.50730957 186.52104004 -141.70211914 187.35458008 -141.90283203 188.21337891 C-145.02966228 202.45905222 -145.87882119 216.53379893 -145.8125 231.0625 C-145.81067719 231.89538544 -145.80885437 232.72827087 -145.80697632 233.58639526 C-145.75986226 246.40034386 -145.17079615 258.80532133 -142.5 271.375 C-142.32839355 272.22191406 -142.15678711 273.06882812 -141.97998047 273.94140625 C-134.17931044 311.80846578 -116.82716326 346.65054931 -90.5859375 375.1015625 C-88.6477745 377.2139424 -86.78976729 379.37498072 -84.9375 381.5625 C-81.4339461 385.56998973 -77.57889975 388.96660432 -73.5 392.375 C-72.6028125 393.1484375 -71.705625 393.921875 -70.78125 394.71875 C-63.67979228 400.77367711 -56.33541269 406.28636851 -48.5 411.375 C-47.94006348 411.73948242 -47.38012695 412.10396484 -46.80322266 412.47949219 C-16.09301121 432.22114868 21.21206951 445.35295368 57.953125 445.578125 C58.72705597 445.58518463 59.50098694 445.59224426 60.29837036 445.59951782 C84.54823125 445.79061119 84.54823125 445.79061119 108.5 442.375 C109.44939453 442.17100586 110.39878906 441.96701172 111.37695312 441.75683594 C143.89158837 434.59277102 174.44880937 421.33778751 200.5 400.375 C201.50933594 399.56933594 202.51867187 398.76367188 203.55859375 397.93359375 C217.47491443 386.60954992 229.90054032 373.84665286 240.5 359.375 C241.14195312 358.50488281 241.78390625 357.63476562 242.4453125 356.73828125 C250.90354898 346.19473521 250.90354898 346.19473521 255.5 334.375 C253.57607422 334.69984375 253.57607422 334.69984375 251.61328125 335.03125 C221.29532861 339.63157255 188.51389256 339.87010125 158.5 333.375 C157.48292969 333.16069336 156.46585937 332.94638672 155.41796875 332.72558594 C118.03096647 324.64858261 83.42595859 308.132399 53.5 284.375 C52.95069824 283.9428418 52.40139648 283.51068359 51.83544922 283.06542969 C37.24827874 271.49428555 23.6945474 258.09181808 12.71484375 243.03857422 C11.49429397 241.36718631 10.24897191 239.71662497 9 238.06640625 C-20.94120685 197.96375998 -36.89487256 148.18411091 -38.5 98.375 C-38.54125 97.29089844 -38.5825 96.20679688 -38.625 95.08984375 C-38.95341673 78.19690843 -37.04994662 61.0581614 -34.5 44.375 C-49.22740998 44.375 -70.25669511 67.55630511 -80.5 77.375 Z " fill="#000000" transform="translate(194.5,17.625)"/>
</svg>
