<?xml version="1.0" encoding="UTF-8"?>
<svg version="1.1" xmlns="http://www.w3.org/2000/svg" width="512" height="512">
<path d="M0 0 C3.21005897 2.62910979 6.29732479 5.37288236 9.3671875 8.1640625 C10.01816406 8.73253906 10.66914063 9.30101562 11.33984375 9.88671875 C31.90083122 28.89226508 44.04549924 59.01100292 45.49316406 86.56152344 C46.57290292 120.74414233 36.24380903 151.85846935 13.04443359 177.40234375 C7.76954224 182.94289921 2.04982859 188.04891863 -3.6328125 193.1640625 C13.7077225 201.41036907 31.05730945 209.62981671 48.5546875 217.5390625 C61.31410765 223.30775616 74.03769846 229.15032506 86.7421875 235.0390625 C87.58647308 235.43003113 88.43075867 235.82099976 89.30062866 236.22381592 C93.37138594 238.1093167 97.43953092 240.0000573 101.50292969 241.90136719 C104.88249003 243.481062 108.27520635 245.02783941 111.67675781 246.55957031 C113.39915764 247.34685406 115.12149056 248.1342842 116.84375 248.921875 C117.6407431 249.27402069 118.43773621 249.62616638 119.25888062 249.98898315 C124.48852559 252.40209289 127.72037818 254.87044386 130.3671875 260.1640625 C130.60546875 262.30078125 130.60546875 262.30078125 130.6796875 264.8515625 C130.71707031 265.68042969 130.75445312 266.50929688 130.79296875 267.36328125 C130.20940782 271.20193432 128.79666431 274.18105687 126.3671875 277.1640625 C123.94915491 278.75263664 121.9096858 279.8959517 119.3046875 281.0390625 C118.61802002 281.36003906 117.93135254 281.68101562 117.22387695 282.01171875 C115.73957859 282.70435815 114.25136265 283.38865109 112.75976562 284.06542969 C110.21976917 285.23175459 107.70707931 286.44600524 105.1953125 287.671875 C103.48202059 288.50311914 101.76848339 289.33385792 100.0546875 290.1640625 C99.23669678 290.56222168 98.41870605 290.96038086 97.57592773 291.37060547 C96.80966064 291.73557129 96.04339355 292.10053711 95.25390625 292.4765625 C94.57545654 292.80269531 93.89700684 293.12882812 93.19799805 293.46484375 C91.3671875 294.1640625 91.3671875 294.1640625 88.3671875 294.1640625 C88.3671875 294.8240625 88.3671875 295.4840625 88.3671875 296.1640625 C89.63647095 296.5647998 89.63647095 296.5647998 90.93139648 296.97363281 C96.57064726 298.9275152 101.94687429 301.47232001 107.36254883 303.96679688 C108.73942453 304.59774972 110.11933385 305.22212458 111.50219727 305.83984375 C113.51768824 306.74040775 115.52302414 307.66082114 117.52734375 308.5859375 C119.31603882 309.39949707 119.31603882 309.39949707 121.14086914 310.22949219 C125.35890056 312.75871511 128.13800487 315.70569724 130.3671875 320.1640625 C130.89846605 325.00653585 130.89260191 329.00377234 128.8671875 333.4765625 C122.73458983 340.06910499 113.96853143 343.39820113 105.91064453 347.09545898 C103.97228074 347.98570522 102.03871874 348.88581994 100.10546875 349.78710938 C90.64297651 354.1640625 90.64297651 354.1640625 88.3671875 354.1640625 C88.3671875 354.8240625 88.3671875 355.4840625 88.3671875 356.1640625 C89.57890625 356.53789062 90.790625 356.91171875 92.0390625 357.296875 C98.42976911 359.43128093 104.50045362 362.22923102 110.6171875 365.0390625 C112.35355469 365.81443359 112.35355469 365.81443359 114.125 366.60546875 C115.24132812 367.11722656 116.35765625 367.62898438 117.5078125 368.15625 C119.01649902 368.84243408 119.01649902 368.84243408 120.55566406 369.54248047 C124.90311846 372.04993028 128.64965965 375.35120973 130.3671875 380.1640625 C131.05249612 384.99309764 130.8868715 389.01642699 128.8671875 393.4765625 C122.73973599 400.06357288 114.08835445 403.26862785 106.00848389 406.86367798 C102.33452598 408.49915503 98.66988614 410.155331 95.00390625 411.80859375 C94.22545349 412.15909286 93.44700073 412.50959198 92.6449585 412.87071228 C83.47874321 417.00360681 74.36077641 421.23989858 65.2421875 425.4765625 C61.75271667 427.09659655 58.26306335 428.71623739 54.7734375 430.3359375 C53.90749466 430.73795883 53.04155182 431.13998016 52.14936829 431.55418396 C43.01981556 435.79169257 33.88177369 440.01074717 24.7421875 444.2265625 C23.94323059 444.59510345 23.14427368 444.96364441 22.32110596 445.34335327 C19.096232 446.83087142 15.8713478 448.31836733 12.64639282 449.80570984 C6.09896757 452.82565718 -0.4468266 455.84912627 -6.9914093 458.87522888 C-11.06882577 460.7600778 -15.14773925 462.64153343 -19.23022461 464.51538086 C-26.51086049 467.85943914 -33.78028039 471.22005475 -41.00442505 474.68484497 C-44.18097567 476.20563524 -47.36552026 477.70920956 -50.55114746 479.21087646 C-52.03912027 479.91788167 -53.52327348 480.63299484 -55.00305176 481.35699463 C-63.35771574 485.44174882 -71.12918584 489.18986584 -80.6328125 487.1640625 C-85.74469264 485.37106494 -90.50022009 483.04286206 -95.3203125 480.6015625 C-96.72000592 479.91521237 -98.12108252 479.23167675 -99.5234375 478.55078125 C-101.70466062 477.49149926 -103.88498929 476.43074165 -106.06137085 475.36154175 C-113.00213308 471.95460479 -120.02916344 468.75503405 -127.08120728 465.5864563 C-138.6490781 460.38558618 -150.15931949 455.06959782 -161.6328125 449.6640625 C-172.91084947 444.35160549 -184.22998659 439.14014429 -195.58804321 434.00112915 C-209.46853036 427.7187992 -223.29613815 421.32449749 -237.10620117 414.88891602 C-244.36074334 411.51126428 -251.61333473 408.14324577 -258.94921875 404.9453125 C-259.97829346 404.49389893 -261.00736816 404.04248535 -262.06762695 403.57739258 C-263.85833053 402.79765772 -265.65456196 402.03040877 -267.45776367 401.2800293 C-273.19891328 398.77474535 -276.76103967 395.90760816 -279.6328125 390.1640625 C-279.87109375 388.02734375 -279.87109375 388.02734375 -279.9453125 385.4765625 C-279.98269531 384.64769531 -280.02007812 383.81882812 -280.05859375 382.96484375 C-279.4751685 379.12708315 -278.05645457 376.14989191 -275.6328125 373.1640625 C-273.23449163 371.57106016 -271.22174501 370.43201118 -268.6328125 369.2890625 C-267.60776611 368.80759766 -267.60776611 368.80759766 -266.56201172 368.31640625 C-264.26161882 367.24401947 -261.94779125 366.20455435 -259.6328125 365.1640625 C-257.82235872 364.32933408 -256.01248022 363.493357 -254.203125 362.65625 C-250.68750447 361.04304592 -247.1706784 359.43296498 -243.640625 357.8515625 C-242.91504395 357.52542969 -242.18946289 357.19929688 -241.44189453 356.86328125 C-239.6328125 356.1640625 -239.6328125 356.1640625 -237.6328125 356.1640625 C-237.6328125 355.5040625 -237.6328125 354.8440625 -237.6328125 354.1640625 C-238.47900146 353.8969043 -239.32519043 353.62974609 -240.19702148 353.35449219 C-245.83627226 351.4006098 -251.21249929 348.85580499 -256.62817383 346.36132812 C-258.00504953 345.73037528 -259.38495885 345.10600042 -260.76782227 344.48828125 C-262.78331324 343.58771725 -264.78864914 342.66730386 -266.79296875 341.7421875 C-268.58166382 340.92862793 -268.58166382 340.92862793 -270.40649414 340.09863281 C-274.62452556 337.56940989 -277.40362987 334.62242776 -279.6328125 330.1640625 C-280.16409105 325.32158915 -280.15822691 321.32435266 -278.1328125 316.8515625 C-272.00021483 310.25902001 -263.23415643 306.92992387 -255.17626953 303.23266602 C-253.23790574 302.34241978 -251.30434374 301.44230506 -249.37109375 300.54101562 C-239.90860151 296.1640625 -239.90860151 296.1640625 -237.6328125 296.1640625 C-237.6328125 295.5040625 -237.6328125 294.8440625 -237.6328125 294.1640625 C-238.31601563 294.06061523 -238.99921875 293.95716797 -239.703125 293.85058594 C-245.27958459 292.54383557 -250.3798535 289.79666421 -255.55273438 287.38183594 C-257.62097562 286.41956971 -259.69674518 285.47511158 -261.7734375 284.53125 C-263.10206198 283.91513846 -264.43020367 283.29798453 -265.7578125 282.6796875 C-266.37253418 282.40239807 -266.98725586 282.12510864 -267.62060547 281.8394165 C-272.43160039 279.56049798 -276.03391 276.65447427 -278.921875 272.15625 C-279.76878311 269.78304595 -279.96857152 267.80833311 -280.0078125 265.2890625 C-280.03617187 264.46664063 -280.06453125 263.64421875 -280.09375 262.796875 C-279.44982994 259.11889091 -277.92336999 257.10889838 -275.6328125 254.1640625 C-273.33589738 252.63486339 -271.26409377 251.4117472 -268.8125 250.21484375 C-268.15120087 249.87777908 -267.48990173 249.54071442 -266.80856323 249.19343567 C-260.537767 246.03099825 -254.15899847 243.09623146 -247.74493408 240.23757935 C-244.17104283 238.64405438 -240.60557677 237.03182585 -237.0390625 235.421875 C-235.9050853 234.91065849 -235.9050853 234.91065849 -234.74819946 234.38911438 C-225.55294037 230.23705575 -216.40675441 225.97943252 -207.2578125 221.7265625 C-192.37143214 214.80989038 -177.46135962 207.94780735 -162.52001953 201.15063477 C-161.48177788 200.67763695 -161.48177788 200.67763695 -160.42256165 200.19508362 C-158.57419339 199.35310891 -156.72523129 198.51243818 -154.8762207 197.671875 C-151.76445985 196.2252634 -148.69372276 194.71497787 -145.6328125 193.1640625 C-149.44132744 189.2643863 -153.2359365 185.44515804 -157.4453125 181.9765625 C-179.24906885 163.0372212 -192.32060016 133.68816874 -194.6328125 105.1640625 C-196.5703648 68.80600933 -185.02837374 37.19167939 -160.73828125 10.046875 C-146.81793847 -4.54750543 -128.83813395 -14.96525592 -109.6328125 -20.8359375 C-108.62468506 -21.15135498 -108.62468506 -21.15135498 -107.59619141 -21.47314453 C-71.19417003 -32.32416011 -29.47962823 -23.43334528 0 0 Z M-152.03515625 27.72265625 C-169.41554781 47.92421281 -178.26203636 74.44309481 -176.80126953 101.03027344 C-174.48804496 130.33111795 -160.82312989 155.593413 -138.6328125 174.6015625 C-123.59523863 187.75581787 -119.0541628 202.79326011 -116.6328125 222.1640625 C-88.9128125 222.1640625 -61.1928125 222.1640625 -32.6328125 222.1640625 C-31.6428125 216.2240625 -30.6528125 210.2840625 -29.6328125 204.1640625 C-24.95209476 189.31950052 -16.58727353 178.79570063 -4.7578125 168.9140625 C14.13195878 152.46406598 25.01195497 127.82662799 27.3671875 103.1640625 C28.97399512 72.29481601 18.62078879 46.1751227 -1.46875 23.05078125 C-18.38290477 5.10527558 -43.20353523 -6.10458226 -67.72265625 -7.15234375 C-100.79595948 -8.01161188 -129.66280343 2.85756217 -152.03515625 27.72265625 Z M-145.203125 213.0390625 C-146.19293617 213.51216606 -146.19293617 213.51216606 -147.20274353 213.99482727 C-148.63662486 214.68127809 -150.0684063 215.37212834 -151.49832153 216.06680298 C-155.36818542 217.94609573 -159.25371829 219.79257837 -163.13671875 221.64453125 C-164.33321297 222.21689766 -164.33321297 222.21689766 -165.55387878 222.80082703 C-173.22152565 226.46293378 -180.94968589 229.98321656 -188.6953125 233.4765625 C-203.42935901 240.13416535 -218.10282027 246.91930936 -232.76586914 253.73168945 C-234.427227 254.50345907 -236.08860338 255.27518883 -237.75 256.046875 C-238.53517502 256.41159409 -239.32035004 256.77631317 -240.12931824 257.15208435 C-245.95001533 259.85329942 -251.782917 262.52658498 -257.6328125 265.1640625 C-254.42536796 267.30235886 -251.10141526 268.91516226 -247.625 270.55078125 C-246.92064316 270.88418015 -246.21628632 271.21757904 -245.49058533 271.56108093 C-243.16432785 272.66075851 -240.83620564 273.75641479 -238.5078125 274.8515625 C-237.70250092 275.23121155 -236.89718933 275.6108606 -236.06747437 276.00201416 C-223.56754992 281.89323492 -211.01712035 287.66457046 -198.42529297 293.35620117 C-187.29553817 298.38989252 -176.21045678 303.51682894 -165.1328125 308.6640625 C-151.38314484 315.05080883 -137.62097402 321.40699861 -123.79931641 327.63671875 C-117.34146306 330.55034525 -110.90244624 333.49571222 -104.49893188 336.52729797 C-101.28529606 338.04756884 -98.06586115 339.55534165 -94.84613037 341.06265259 C-93.30362367 341.78921427 -91.76402254 342.52198118 -90.2276001 343.26132202 C-88.09632496 344.2864444 -85.95593424 345.28967073 -83.8125 346.2890625 C-83.18792908 346.59652908 -82.56335815 346.90399567 -81.91986084 347.22077942 C-77.40334452 349.28996397 -74.41774988 349.36960606 -69.6328125 348.1640625 C-67.08504389 347.14084968 -64.68677461 346.08525876 -62.234375 344.875 C-61.53567795 344.54018616 -60.8369809 344.20537231 -60.11711121 343.8604126 C-58.61295923 343.13863144 -57.11080913 342.41266628 -55.61050415 341.68292236 C-51.56104417 339.71410731 -47.49618882 337.77746211 -43.43359375 335.8359375 C-42.19173561 335.24088913 -42.19173561 335.24088913 -40.92478943 334.63381958 C-33.14556002 330.91273585 -25.30619529 327.33357253 -17.4453125 323.7890625 C-5.05792882 318.19310521 7.28875694 312.5137114 19.6171875 306.7890625 C49.1296748 293.08990079 78.69115968 279.50560392 108.3671875 266.1640625 C104.80690329 263.18271895 100.79887723 261.36625659 96.60546875 259.4609375 C95.83580276 259.10671219 95.06613678 258.75248688 94.27314758 258.38752747 C91.74409408 257.22506741 89.21194324 256.06952822 86.6796875 254.9140625 C84.90331298 254.09924768 83.12711057 253.28405752 81.35107422 252.46850586 C69.2736542 246.92783167 57.17628015 241.43072939 45.07080078 235.95166016 C37.14039408 232.3581302 29.23315453 228.71730298 21.33984375 225.04296875 C20.40186951 224.60664627 19.46389526 224.17032379 18.49749756 223.72077942 C13.8685918 221.56685927 9.24170768 219.40874803 4.61767578 217.24438477 C2.933974 216.45968073 1.25022007 215.67508858 -0.43359375 214.890625 C-1.20493149 214.52783951 -1.97626923 214.16505402 -2.77098083 213.79127502 C-3.48633499 213.45877243 -4.20168915 213.12626984 -4.9387207 212.78369141 C-5.55866409 212.49362213 -6.17860748 212.20355286 -6.81733704 211.9046936 C-8.73151724 211.12379547 -10.61827798 210.61815419 -12.6328125 210.1640625 C-14.39894953 214.57940507 -16.35138099 219.50608451 -14.6328125 224.1640625 C-12.27281401 225.9553327 -9.81769762 227.23003903 -7.1875 228.58984375 C-2.44464249 231.51243026 -0.34979641 236.01311078 1.3671875 241.1640625 C2.18117591 250.10630661 1.9830928 257.83779755 -3.6328125 265.1640625 C-7.24786521 268.6001522 -11.15542346 271.01012924 -15.6328125 273.1640625 C-15.54580078 274.72253906 -15.54580078 274.72253906 -15.45703125 276.3125 C-15.08604196 285.79321108 -15.45957867 293.30864399 -22.0546875 300.7734375 C-27.87603765 306.09402635 -34.15269243 307.61484322 -41.79614258 307.58398438 C-42.58089462 307.59245392 -43.36564667 307.60092346 -44.17417908 307.60964966 C-46.75040208 307.63291389 -49.32602395 307.63404423 -51.90234375 307.6328125 C-53.70684544 307.63992143 -55.51134489 307.64762149 -57.31584167 307.65588379 C-61.09254238 307.66930504 -64.86903413 307.67090842 -68.64575195 307.66503906 C-73.46415872 307.65915095 -78.28155513 307.68970848 -83.09976673 307.73015594 C-86.82579362 307.75612241 -90.55158028 307.75890218 -94.27768517 307.75526428 C-96.05295026 307.75694776 -97.82822738 307.76651521 -99.60340309 307.78440857 C-118.22606328 307.95145084 -118.22606328 307.95145084 -125.6328125 302.1640625 C-129.26418932 298.28823805 -132.11402697 294.29726553 -133.6328125 289.1640625 C-133.55244668 287.22121888 -133.46709002 285.27734162 -133.29931641 283.34008789 C-133.0186981 279.7780459 -133.09197942 276.72022523 -133.6328125 273.1640625 C-135.9286341 270.8057088 -138.01000436 269.83482478 -141.01171875 268.5234375 C-146.1438135 265.86178479 -148.85223074 260.50580778 -150.6328125 255.1640625 C-151.43805899 246.31785468 -151.37215652 238.33824252 -145.6328125 231.1640625 C-142.22740777 228.29295403 -138.6040982 226.14970535 -134.6328125 224.1640625 C-134.9628125 219.8740625 -135.2928125 215.5840625 -135.6328125 211.1640625 C-139.62938658 209.83187114 -141.63250156 211.27782107 -145.203125 213.0390625 Z M-133.6328125 245.1640625 C-134.46614583 248.1640625 -134.46614583 248.1640625 -133.6328125 251.1640625 C-131.59981221 254.01304163 -129.97982489 255.87616969 -126.46292114 256.62782669 C-123.70764227 256.81662114 -120.99217472 256.83943992 -118.23046875 256.81103516 C-117.18438446 256.81979675 -116.13830017 256.82855835 -115.06051636 256.83758545 C-111.60502563 256.85957963 -108.15081609 256.84502549 -104.6953125 256.828125 C-102.29304763 256.8314931 -99.89078442 256.83634566 -97.48852539 256.84262085 C-92.45475026 256.84999226 -87.42141885 256.8392773 -82.38769531 256.81591797 C-75.93435854 256.78743091 -69.48206144 256.80383332 -63.02876282 256.83378029 C-58.06848309 256.85184549 -53.10844998 256.84609861 -48.14816284 256.83314133 C-45.76870603 256.82980521 -43.38922684 256.83390156 -41.00979614 256.84553909 C-37.68431264 256.85823415 -34.36051419 256.83888707 -31.03515625 256.81103516 C-29.55908401 256.82621689 -29.55908401 256.82621689 -28.05319214 256.84170532 C-23.42540316 256.76987632 -21.304681 256.6700873 -17.51391602 253.81503296 C-15.42081864 251.27696772 -15.42081864 251.27696772 -15.1328125 248.1015625 C-15.68026058 244.88530503 -16.3403816 243.4564934 -18.6328125 241.1640625 C-21.42422258 240.23359247 -23.13561618 240.03078848 -26.02206421 240.01016235 C-27.36788322 239.99726166 -27.36788322 239.99726166 -28.7408905 239.98410034 C-29.72277847 239.97984039 -30.70466644 239.97558044 -31.71630859 239.97119141 C-32.75234726 239.96301392 -33.78838593 239.95483643 -34.8558197 239.94641113 C-38.28929057 239.92156804 -41.72272019 239.9050459 -45.15625 239.890625 C-46.91348829 239.88263948 -46.91348829 239.88263948 -48.70622635 239.87449265 C-54.90407914 239.84776878 -61.10191182 239.82838936 -67.29980469 239.81396484 C-73.708235 239.79729766 -80.11615299 239.75249974 -86.52438927 239.7015934 C-91.44685474 239.66798245 -96.36919752 239.65639426 -101.29176712 239.65073776 C-103.65451611 239.64401084 -106.01725662 239.62875168 -108.37989426 239.60484695 C-111.68386756 239.57331902 -114.98644386 239.57314031 -118.29052734 239.58056641 C-119.26836685 239.56416107 -120.24620636 239.54775574 -121.25367737 239.53085327 C-127.07938348 239.58452875 -130.03506818 240.12476082 -133.6328125 245.1640625 Z M-114.6328125 276.1640625 C-116.97830924 279.68230761 -117.21272653 281.02181944 -116.6328125 285.1640625 C-114.00196389 288.53456608 -112.5073223 289.99964144 -108.25585938 290.79898071 C-106.96744141 290.80295868 -105.67902344 290.80693665 -104.3515625 290.81103516 C-103.27986816 290.82417755 -103.27986816 290.82417755 -102.18652344 290.83758545 C-99.83466099 290.8595174 -97.48469263 290.84505116 -95.1328125 290.828125 C-93.49283489 290.83149498 -91.85285971 290.83634911 -90.21289062 290.84262085 C-86.77970547 290.84998369 -83.34717178 290.83930642 -79.9140625 290.81591797 C-75.51871893 290.78742963 -71.12490185 290.80383689 -66.72961426 290.83378029 C-63.34428456 290.85186973 -59.95931531 290.84608789 -56.57397461 290.83314133 C-54.95369281 290.82981182 -53.33337802 290.83387842 -51.71313477 290.84553909 C-49.44589894 290.85827617 -47.18111608 290.83883647 -44.9140625 290.81103516 C-43.62564453 290.80705719 -42.33722656 290.80307922 -41.00976562 290.79898071 C-36.75908425 289.99978839 -35.2710308 288.5263587 -32.6328125 285.1640625 C-31.88266055 282.12097959 -31.88266055 282.12097959 -32.6328125 279.1640625 C-34.4999116 276.86130694 -35.98928991 275.48582379 -38.6328125 274.1640625 C-40.8886606 274.06170871 -43.14760307 274.02561641 -45.40576172 274.01879883 C-46.10188568 274.01544022 -46.79800964 274.0120816 -47.51522827 274.00862122 C-49.8226702 273.99910154 -52.13003964 273.99716752 -54.4375 273.99609375 C-56.03931712 273.99288159 -57.64113394 273.98951755 -59.24295044 273.98600769 C-62.60386841 273.98001368 -65.96476065 273.97816804 -69.32568359 273.97875977 C-73.63219327 273.97886134 -77.9385379 273.96521539 -82.24500847 273.94798756 C-85.55470538 273.93686758 -88.8643624 273.93484057 -92.17407608 273.93536949 C-93.76169529 273.93418913 -95.34931551 273.92976421 -96.93691635 273.92203712 C-99.1584197 273.91223835 -101.37956509 273.91511482 -103.60107422 273.92114258 C-104.86523163 273.91971756 -106.12938904 273.91829254 -107.43185425 273.91682434 C-110.48971034 274.15300946 -112.14157602 274.43134711 -114.6328125 276.1640625 Z M-223.52734375 308.8125 C-224.70389778 309.37138412 -224.70389778 309.37138412 -225.90422058 309.94155884 C-228.41966276 311.13710033 -230.93259835 312.33779933 -233.4453125 313.5390625 C-235.94768393 314.73238644 -238.45057527 315.92459648 -240.95426941 317.11514282 C-242.51332445 317.8568111 -244.07155887 318.60020753 -245.62886047 319.34555054 C-249.25679249 321.07437034 -252.8744373 322.73146266 -256.6328125 324.1640625 C-256.6328125 324.8240625 -256.6328125 325.4840625 -256.6328125 326.1640625 C-227.64720273 339.6383764 -227.64720273 339.6383764 -198.5703125 352.9140625 C-187.21305759 358.05293701 -175.90888271 363.29492565 -164.63153076 368.60668945 C-153.35968637 373.91343268 -142.04001766 379.10652389 -130.68041992 384.22265625 C-122.62945789 387.85532467 -114.62601855 391.57590776 -106.6484375 395.3671875 C-103.83691579 396.69616051 -101.02484392 398.02396262 -98.21261597 399.35144043 C-96.37897232 400.22119727 -94.5479685 401.0965431 -92.71975708 401.97766113 C-90.16200073 403.21002477 -87.59586702 404.42308718 -85.02734375 405.6328125 C-84.26629333 406.00593567 -83.50524292 406.37905884 -82.72113037 406.76348877 C-78.26141509 408.83778955 -75.50682388 409.70945159 -70.6328125 408.1640625 C-67.84695492 407.07073094 -65.15075587 405.8292107 -62.44921875 404.54296875 C-61.65403336 404.17173889 -60.85884796 403.80050903 -60.03956604 403.41802979 C-57.4216502 402.19417415 -54.80859918 400.96026755 -52.1953125 399.7265625 C-50.35373793 398.86400488 -48.51177203 398.00228229 -46.66943359 397.14135742 C-42.86278874 395.36198463 -39.05762007 393.57951073 -35.25341797 391.79492188 C-27.57448247 388.19630088 -19.87576993 384.6407569 -12.17434692 381.09057617 C-9.74211127 379.96932429 -7.31035539 378.84703697 -4.87866211 377.72460938 C6.3571551 372.54044506 17.60918953 367.39235105 28.86746216 362.25717163 C42.04490711 356.24506509 55.18776222 350.15954848 68.3253479 344.06091309 C81.31150872 338.03313857 94.31481015 332.04746318 107.3671875 326.1640625 C107.3671875 325.5040625 107.3671875 324.8440625 107.3671875 324.1640625 C101.86885537 321.61687056 96.36956931 319.07175399 90.86938477 316.52856445 C88.99802643 315.66292528 87.12693105 314.79671739 85.25610352 313.92993164 C82.56855938 312.68486678 79.88007934 311.44184343 77.19140625 310.19921875 C76.35381271 309.81065201 75.51621918 309.42208527 74.65324402 309.02174377 C73.48236992 308.48129677 73.48236992 308.48129677 72.2878418 307.92993164 C71.25858833 307.45361046 71.25858833 307.45361046 70.20854187 306.96766663 C66.52108039 305.29900517 66.52108039 305.29900517 62.64794922 306.12597656 C61.54209473 306.63870117 60.43624023 307.15142578 59.296875 307.6796875 C58.68084412 307.96204758 58.06481323 308.24440765 57.43011475 308.5353241 C55.3630614 309.48564406 53.30279733 310.4498596 51.2421875 311.4140625 C49.77171815 312.0933883 48.30084264 312.77183552 46.82958984 313.44946289 C42.83770218 315.29106841 38.85153961 317.14476521 34.86645508 319.0010376 C30.67676626 320.95069376 26.48272458 322.8909402 22.2890625 324.83203125 C17.11605014 327.22722164 11.94358501 329.62357086 6.77319336 332.02441406 C-8.03572044 338.89974905 -22.8790629 345.69792633 -37.73492432 352.47109985 C-42.17201835 354.49492226 -46.60477929 356.52791859 -51.03515625 358.56640625 C-52.15913818 359.08332031 -53.28312012 359.60023438 -54.44116211 360.1328125 C-56.5011435 361.08078527 -58.56059093 362.02991962 -60.61938477 362.98046875 C-61.51069092 363.39039063 -62.40199707 363.8003125 -63.3203125 364.22265625 C-64.08730469 364.57642334 -64.85429687 364.93019043 -65.64453125 365.29467773 C-70.55449822 367.4415825 -75.41853023 368.13163115 -80.59228516 366.57421875 C-82.75165491 365.677654 -84.84471606 364.69096076 -86.9453125 363.6640625 C-88.7119793 362.83538237 -90.47892991 362.00730716 -92.24609375 361.1796875 C-93.24205566 360.70724609 -94.23801758 360.23480469 -95.26416016 359.74804688 C-99.07563875 357.95583981 -102.90430389 356.20434949 -106.73828125 354.4609375 C-107.45462234 354.13508667 -108.17096344 353.80923584 -108.90901184 353.47351074 C-110.39321678 352.79839399 -111.8774343 352.12330489 -113.36166382 351.44824219 C-125.92511065 345.72740954 -138.45630467 339.93846628 -150.9699707 334.10961914 C-161.99376678 328.98111276 -173.05336828 323.93171664 -184.11914062 318.89453125 C-185.51308308 318.25925115 -186.90696402 317.62383604 -188.30078125 316.98828125 C-188.97752899 316.68006439 -189.65427673 316.37184753 -190.35153198 316.05429077 C-194.0459454 314.36617902 -197.72580582 312.65116613 -201.39306641 310.90478516 C-202.17337723 310.53376175 -202.95368805 310.16273834 -203.75764465 309.7804718 C-205.26281416 309.06294728 -206.76637757 308.34204137 -208.26811218 307.61735535 C-214.87951045 304.46480467 -217.1526085 305.75191549 -223.52734375 308.8125 Z M-225.48046875 369.02734375 C-226.37777206 369.45331345 -227.27507538 369.87928314 -228.1995697 370.31816101 C-231.04559919 371.67700078 -233.86976785 373.07570266 -236.6953125 374.4765625 C-238.62825484 375.40830579 -240.56248959 376.33737297 -242.49804688 377.26367188 C-247.22503872 379.53303238 -251.93478136 381.83538898 -256.6328125 384.1640625 C-253.86774324 387.09505752 -251.1742503 388.50630627 -247.5 390.2109375 C-246.88460861 390.49843872 -246.26921722 390.78593994 -245.63517761 391.08215332 C-243.5957017 392.03268597 -241.55188607 392.97346238 -239.5078125 393.9140625 C-238.05896464 394.58648593 -236.61031904 395.25934533 -235.16186523 395.93261719 C-224.00919551 401.10679873 -212.81518033 406.19063949 -201.61523438 411.26147461 C-190.55163913 416.27360401 -179.52485273 421.36299923 -168.5078125 426.4765625 C-167.64825958 426.87544678 -166.78870667 427.27433105 -165.90310669 427.68530273 C-162.41616939 429.30349671 -158.92930047 430.92183788 -155.44255066 432.54043579 C-149.46864602 435.31326885 -143.49306239 438.08244693 -137.515625 440.84765625 C-136.69259888 441.22850372 -135.86957275 441.6093512 -135.02160645 442.0017395 C-130.95131731 443.88404534 -126.87880695 445.761284 -122.80175781 447.62890625 C-121.21150746 448.35789606 -119.62133765 449.08706161 -118.03125 449.81640625 C-117.2527771 450.17346649 -116.4743042 450.53052673 -115.67224121 450.89840698 C-110.92682525 453.08338707 -106.20973593 455.31992244 -101.50909424 457.59957886 C-98.48272641 459.06392107 -95.44624068 460.50646595 -92.40820312 461.94641113 C-90.99385515 462.62395896 -89.5844491 463.31193831 -88.18066406 464.0111084 C-80.04684793 468.47564834 -80.04684793 468.47564834 -71.1875 468.50390625 C-69.64739305 467.76810116 -68.13172313 466.9805216 -66.6328125 466.1640625 C-64.89911919 465.37018146 -63.16515489 464.57686356 -61.42790222 463.790802 C-58.70750836 462.5467424 -56.01197205 461.25275552 -53.31466675 459.95956421 C-49.52150095 458.14195365 -45.71956951 456.34285405 -41.91796875 454.54296875 C-40.74930016 453.98915276 -40.74930016 453.98915276 -39.55702209 453.42414856 C-31.93164896 449.81784829 -24.25738246 446.32392121 -16.5703125 442.8515625 C-4.18514518 437.25097897 8.16318892 431.5747382 20.4921875 425.8515625 C21.34959534 425.45358459 22.20700317 425.05560669 23.09039307 424.64556885 C26.56887154 423.03090783 30.04733319 421.41621063 33.5256958 419.80130005 C42.11940798 415.81257225 50.72064307 411.84021378 59.3236084 407.87149048 C61.77371039 406.74085731 64.22333985 405.60920628 66.67285156 404.47729492 C73.30521807 401.41359288 79.93861871 398.35285657 86.5905304 395.33177185 C88.48441576 394.47155012 90.37724468 393.60904686 92.26977539 392.74584961 C94.5178379 391.7217902 96.76819133 390.70273891 99.02124023 389.68969727 C100.47252319 389.02732056 100.47252319 389.02732056 101.953125 388.3515625 C102.7889209 387.97386719 103.6247168 387.59617187 104.48583984 387.20703125 C106.53279625 386.30403643 106.53279625 386.30403643 107.3671875 384.1640625 C102.69300262 381.93368049 98.01559582 379.71024965 93.33520508 377.49291992 C91.7467581 376.73924189 90.15917369 375.98374291 88.57250977 375.22631836 C86.27850658 374.1316336 83.98137731 373.04375439 81.68359375 371.95703125 C80.63770836 371.45528633 80.63770836 371.45528633 79.57069397 370.94340515 C77.51800063 369.97715018 75.45097092 369.06115587 73.3671875 368.1640625 C72.62883667 367.83123764 71.89048584 367.49841278 71.12976074 367.15550232 C67.19850559 365.5747755 64.45971273 364.7292449 60.38427734 366.19018555 C59.01790081 366.82194664 57.66609508 367.48589505 56.328125 368.17578125 C55.20871017 368.70761772 55.20871017 368.70761772 54.06668091 369.25019836 C51.61129901 370.42399461 49.17792556 371.63760031 46.7421875 372.8515625 C45.00736419 373.68867264 43.27100378 374.52260398 41.53320312 375.35351562 C37.92458174 377.08198058 34.32295551 378.82392838 30.72558594 380.57568359 C23.29125892 384.18320813 15.78070985 387.62248843 8.26815796 391.06323242 C4.24423947 392.90817411 0.2258599 394.76509792 -3.79296875 396.62109375 C-4.99263527 397.17472092 -4.99263527 397.17472092 -6.21653748 397.73953247 C-11.32376082 400.09659456 -16.42920756 402.45747171 -21.53366089 404.82052612 C-25.03686569 406.44213959 -28.54062995 408.06254225 -32.04443359 409.68286133 C-33.69363728 410.44593286 -35.34257525 411.20957902 -36.99121094 411.97387695 C-45.12280233 415.74347209 -53.26654518 419.48279435 -61.46484375 423.10546875 C-62.44565163 423.54266487 -62.44565163 423.54266487 -63.4462738 423.98869324 C-69.21099225 426.51556662 -73.85500622 428.45264977 -80.00268555 426.35571289 C-88.7690441 422.60684222 -97.41634849 418.61498724 -106.05566406 414.58325195 C-110.62190638 412.45259227 -115.19190848 410.33002498 -119.76171875 408.20703125 C-120.68518097 407.77784393 -121.60864319 407.34865662 -122.56008911 406.90646362 C-131.76303024 402.63256294 -140.99146369 398.41540153 -150.22628784 394.2109375 C-159.03955435 390.1975194 -167.83414195 386.14676799 -176.609375 382.05078125 C-178.48241952 381.17772931 -180.35546638 380.30468242 -182.22851562 379.43164062 C-185.83654195 377.74953948 -189.44150037 376.06107939 -193.04492188 374.36914062 C-194.70171685 373.5961268 -196.358613 372.82332976 -198.015625 372.05078125 C-198.75479156 371.7015007 -199.49395813 371.35222015 -200.25552368 370.99235535 C-202.36662241 370.01169339 -204.49465983 369.08399747 -206.6328125 368.1640625 C-207.35546799 367.81982742 -208.07812347 367.47559235 -208.82267761 367.1209259 C-215.43467752 364.33417013 -219.27734703 365.88275233 -225.48046875 369.02734375 Z " fill="#000000" transform="translate(330.6328125,24.8359375)"/>
<path d="M0 0 C2.58364158 2.16304876 4.90971799 4.47288154 7.22265625 6.921875 C10.26408664 9.76054337 13.03195677 10.65298919 17.18359375 10.7265625 C18.26898438 10.66726562 19.354375 10.60796875 20.47265625 10.546875 C26.46012519 10.45226488 29.33260581 11.09808717 34.09765625 14.671875 C35.33515625 15.5071875 35.33515625 15.5071875 36.59765625 16.359375 C41.4891543 20.8840107 46.14824995 26.20602241 48.09765625 32.671875 C48.1875 35.79296875 48.1875 35.79296875 48.03515625 39.109375 C47.96075421 45.84305436 47.96075421 45.84305436 51.09765625 51.671875 C53.098186 53.48421586 55.12557059 55.20751798 57.2578125 56.86328125 C60.78784397 60.33335465 61.20928944 63.75855619 61.3984375 68.54296875 C61.41298459 70.39838459 61.41656766 72.25391322 61.41015625 74.109375 C61.42626953 75.03814453 61.44238281 75.96691406 61.45898438 76.92382812 C61.46277483 82.24941075 61.17486289 86.1253715 58.09765625 90.671875 C56.125 92.61328125 56.125 92.61328125 54.03515625 94.234375 C50.76828354 96.77122029 49.21806665 98.64778318 48.09765625 102.671875 C48.00523751 105.75923759 48.00523751 105.75923759 48.22265625 108.984375 C48.29746279 118.50617826 45.26556418 122.76879325 38.72265625 129.484375 C34.23769055 133.96302384 30.36258549 137.44846448 23.84375 137.89453125 C22.75191406 137.84167969 21.66007812 137.78882813 20.53515625 137.734375 C16.05562986 137.5286017 13.19241083 137.87298282 9.09765625 139.671875 C8.10765625 139.671875 7.11765625 139.671875 6.09765625 139.671875 C5.89140625 140.39375 5.68515625 141.115625 5.47265625 141.859375 C2.9931296 146.93113405 -0.38796619 149.12356588 -5.52734375 150.984375 C-13.82540393 152.65352504 -24.59585383 153.18200452 -31.91015625 148.34375 C-35.23684723 145.67700986 -37.16403675 143.98956908 -37.90234375 139.671875 C-38.78921875 139.5275 -39.67609375 139.383125 -40.58984375 139.234375 C-42.45485322 138.91767528 -44.31711745 138.56818157 -46.15234375 138.109375 C-48.82248219 137.68458025 -51.08521874 137.74550869 -53.77734375 137.859375 C-63.14047478 137.859375 -68.15282111 131.78558361 -74.44921875 125.62109375 C-78.81587223 120.371375 -80.42454863 115.59108963 -79.90234375 108.671875 C-79.60263672 107.69734375 -79.60263672 107.69734375 -79.296875 106.703125 C-78.67023305 103.47684961 -79.96215115 101.57367785 -81.453125 98.75390625 C-83.54728902 95.74530942 -86.1714777 93.68312259 -89.09765625 91.5078125 C-93.69856209 86.82723729 -93.2388591 80.37750276 -93.21484375 74.234375 C-93.23095703 73.41388672 -93.24707031 72.59339844 -93.26367188 71.74804688 C-93.2680267 66.29144576 -92.5645857 62.46751626 -89.90234375 57.671875 C-87.96484375 55.73828125 -87.96484375 55.73828125 -85.90234375 54.234375 C-81.64171696 50.75839403 -80.23291668 47.99416671 -78.90234375 42.671875 C-79.39734375 41.186875 -79.39734375 41.186875 -79.90234375 39.671875 C-80.48118108 33.76773427 -79.30051328 29.46586967 -75.90234375 24.671875 C-63.89257889 11.01334367 -63.89257889 11.01334367 -55.6484375 10.44921875 C-54.55660156 10.50207031 -53.46476562 10.55492187 -52.33984375 10.609375 C-47.86031736 10.8151483 -44.99709833 10.47076718 -40.90234375 8.671875 C-39.91234375 8.671875 -38.92234375 8.671875 -37.90234375 8.671875 C-37.69609375 7.95 -37.48984375 7.228125 -37.27734375 6.484375 C-34.7978171 1.41261595 -31.41672131 -0.77981588 -26.27734375 -2.640625 C-18.14056233 -4.27733391 -7.09841898 -4.95577506 0 0 Z M-20.90234375 14.671875 C-21.61970703 16.26708984 -21.61970703 16.26708984 -22.3515625 17.89453125 C-25.05924316 22.61839259 -28.81988316 24.11719364 -33.71484375 26.109375 C-34.49666016 26.45935547 -35.27847656 26.80933594 -36.08398438 27.16992188 C-42.56378336 29.93615185 -47.99577906 30.34619371 -54.90234375 28.671875 C-57.27123941 30.80731428 -59.27181294 32.9187669 -60.90234375 35.671875 C-60.94089429 37.99347393 -60.52207615 40.01187837 -60.0859375 42.2890625 C-59.79828083 46.02247888 -61.20327301 48.7665456 -62.73828125 52.11328125 C-63.95056544 54.66244379 -63.95056544 54.66244379 -64.81640625 57.38671875 C-66.34091043 61.90057679 -67.39989623 64.86690499 -71.65234375 67.296875 C-73.26109375 67.9775 -73.26109375 67.9775 -74.90234375 68.671875 C-74.90234375 72.301875 -74.90234375 75.931875 -74.90234375 79.671875 C-73.3090625 80.37376953 -73.3090625 80.37376953 -71.68359375 81.08984375 C-66.81753567 83.8797334 -65.37075665 87.92772374 -63.40234375 92.984375 C-62.86480469 94.22864258 -62.86480469 94.22864258 -62.31640625 95.49804688 C-59.73874131 101.8273133 -59.71632922 106.11383142 -61.90234375 112.671875 C-60.66681099 113.87442024 -59.41332036 115.05853732 -58.15234375 116.234375 C-57.10820312 117.22630859 -57.10820312 117.22630859 -56.04296875 118.23828125 C-54.03883794 119.91951892 -54.03883794 119.91951892 -51.828125 119.41015625 C-51.19261719 119.16652344 -50.55710937 118.92289062 -49.90234375 118.671875 C-43.86101586 117.93212057 -39.85221285 119.77792369 -34.5546875 122.38671875 C-32.36628702 123.44707774 -30.25741402 124.26296388 -27.96484375 125.046875 C-23.81704667 127.24774692 -22.88073902 129.47767702 -20.90234375 133.671875 C-19.46578521 133.75318963 -18.02789545 133.81121059 -16.58984375 133.859375 C-15.78933594 133.89417969 -14.98882812 133.92898437 -14.1640625 133.96484375 C-11.30477409 133.5944696 -10.65126935 132.93029153 -8.90234375 130.671875 C-8.50144531 129.85203125 -8.10054688 129.0321875 -7.6875 128.1875 C-5.24011217 124.73866464 -2.1880768 123.77622003 1.66015625 122.421875 C3.01570837 121.91689039 4.37118074 121.41169168 5.7265625 120.90625 C6.83902344 120.49890625 7.95148438 120.0915625 9.09765625 119.671875 C9.75765625 119.341875 10.41765625 119.011875 11.09765625 118.671875 C15.26500812 118.51461644 19.04207553 118.68870392 23.09765625 119.671875 C24.15120974 118.74963397 25.16442541 117.78126494 26.16015625 116.796875 C26.72863281 116.26320313 27.29710937 115.72953125 27.8828125 115.1796875 C29.30646792 112.24082325 29.03470294 111.19804217 28.5625 108.03125 C27.78103739 102.16030316 29.22490412 98.12276468 31.59765625 92.796875 C31.92507813 91.96929687 32.2525 91.14171875 32.58984375 90.2890625 C35.05842993 84.53521501 37.36988728 82.21600539 43.09765625 79.671875 C43.09765625 76.041875 43.09765625 72.411875 43.09765625 68.671875 C42.01097656 68.1665625 40.92429687 67.66125 39.8046875 67.140625 C35.47333068 64.66244754 34.30024558 61.77524375 32.78515625 57.171875 C32.31106755 55.84853798 31.83583871 54.52560876 31.359375 53.203125 C30.94300781 52.0378125 30.52664063 50.8725 30.09765625 49.671875 C29.50984375 48.56005859 29.50984375 48.56005859 28.91015625 47.42578125 C27.18795904 43.70815363 28.86296273 39.37595557 30.09765625 35.671875 C28.86212349 34.46932976 27.60863286 33.28521268 26.34765625 32.109375 C25.6515625 31.44808594 24.95546875 30.78679687 24.23828125 30.10546875 C22.23415044 28.42423108 22.23415044 28.42423108 20.0234375 28.93359375 C19.38792969 29.17722656 18.75242187 29.42085937 18.09765625 29.671875 C12.05632836 30.41162943 8.04752535 28.56582631 2.75 25.95703125 C0.56159952 24.89667226 -1.54727348 24.08078612 -3.83984375 23.296875 C-7.98764083 21.09600308 -8.92394848 18.86607298 -10.90234375 14.671875 C-14.20234375 14.671875 -17.50234375 14.671875 -20.90234375 14.671875 Z " fill="#000000" transform="translate(271.90234375,45.328125)"/>
<path d="M0 0 C8.77356827 6.02307372 14.48236927 13.78263114 16.6875 24.26953125 C17.87207539 34.67158394 15.82211702 43.5061317 9.6640625 52 C4.32873217 58.4124158 -2.6873618 63.41015116 -11 65 C-21.9993117 65.77501925 -31.4781387 64.82040204 -40.1875 57.65625 C-48.69801959 49.87939589 -52.45038223 41.46251827 -53.02734375 29.87890625 C-52.936811 20.34710145 -49.28496955 12.84351616 -42.9921875 5.73046875 C-31.45103788 -5.41770265 -14.19051927 -7.87413776 0 0 Z M-30.75 19.6875 C-33.91767944 23.86307745 -35.39570991 28.04970712 -34.69140625 33.30078125 C-33.10068119 39.17954778 -30.11411896 42.74556066 -25 46 C-20.65402177 47.44865941 -16.39624753 47.88893053 -12.0625 46.28125 C-6.73876048 43.43580301 -3.44131142 39.95434309 -1.5625 34.25 C-0.54496111 29.34731262 -1.56406572 25.32877501 -4 21 C-8.07512839 16.41667912 -11.58405775 14.15842244 -17.8125 13.75 C-23.42943123 13.8528742 -26.7403194 15.76894851 -30.75 19.6875 Z " fill="#000000" transform="translate(274,89)"/>
</svg>
