<?xml version="1.0" encoding="UTF-8"?>
<svg version="1.1" xmlns="http://www.w3.org/2000/svg" width="512" height="512">
<path d="M0 0 C0.74903668 -0.00453111 1.49807335 -0.00906223 2.26980811 -0.01373065 C4.75747647 -0.02630091 7.24492382 -0.02475908 9.73262024 -0.02310181 C11.52549518 -0.02909175 13.31836756 -0.03589837 15.11123657 -0.04345703 C19.96686663 -0.06107876 24.82242614 -0.06581085 29.67808509 -0.0670886 C32.71686324 -0.06851316 35.75562363 -0.07278857 38.79439735 -0.07808304 C49.41053525 -0.09657208 60.02662302 -0.10475524 70.64277649 -0.10317993 C80.51412722 -0.1019795 90.38525896 -0.12306557 100.25655431 -0.15466726 C108.7511264 -0.18088535 117.24562723 -0.19154488 125.74023944 -0.19026911 C130.80492886 -0.18976102 135.86942364 -0.1953592 140.93407249 -0.21662521 C145.70222733 -0.23610052 150.47000373 -0.23606897 155.23817253 -0.22159195 C156.97912402 -0.21951409 158.72009978 -0.22414308 160.46100998 -0.23631287 C175.18526875 -0.33250043 187.45045815 1.50267224 199.14009094 11.26742554 C199.86067688 11.86426147 200.58126282 12.46109741 201.32368469 13.07601929 C208.36427916 19.47776965 214.53329246 29.75051111 215.31407166 39.42266846 C215.37071628 41.96444526 215.36496466 44.49862716 215.33540344 47.04086304 C215.3311586 48.42647934 215.3311586 48.42647934 215.326828 49.84008789 C215.31568274 52.7743353 215.29058859 55.70827124 215.26509094 58.64242554 C215.25505383 60.63851486 215.24592926 62.634609 215.23774719 64.63070679 C215.21576191 69.50973203 215.18127111 74.38852607 215.14009094 79.26742554 C216.17833008 79.2607637 217.21656921 79.25410187 218.28627014 79.24723816 C228.11288275 79.18619009 237.93945644 79.14133974 247.76621628 79.11198902 C252.81719166 79.09639182 257.86801286 79.07526321 262.91889954 79.04110718 C267.80131273 79.00830036 272.68357845 78.99052791 277.56609344 78.98279381 C279.42064482 78.97728833 281.27518893 78.96653841 283.12967682 78.95023537 C300.00668928 78.80788675 314.83962457 80.38730556 327.89009094 92.26742554 C336.27953643 101.12462788 340.27785356 111.91450524 340.3170929 123.96054077 C340.32694969 125.27608696 340.32694969 125.27608696 340.33700562 126.61820984 C340.35671264 129.52081394 340.36839932 132.42336619 340.37837219 135.32601929 C340.38244772 136.32112078 340.38652325 137.31622227 340.39072227 138.34147835 C340.41157818 143.61488766 340.42587848 148.88827103 340.43525696 154.16171265 C340.4462828 159.58167366 340.48063983 165.00121975 340.52042866 170.42103481 C340.54671415 174.61037401 340.55495965 178.79961645 340.55853844 182.98903084 C340.5633785 184.98510584 340.57491787 186.98117728 340.59357643 188.97717094 C340.77747205 209.96433627 336.11354901 225.05954816 322.14009094 241.26742554 C321.81009094 241.59742554 321.48009094 241.92742554 321.14009094 242.26742554 C321.04175254 244.49112376 321.01544553 246.71800661 321.01551819 248.94387817 C321.01410804 249.65018191 321.01269789 250.35648564 321.01124501 251.08419251 C321.00757283 253.46918301 321.01093687 255.85411475 321.01411438 258.23910522 C321.01272042 259.94227648 321.01082164 261.64544738 321.00845337 263.34861755 C321.00394553 267.02744576 321.00210004 270.70626279 321.00199127 274.38509369 C321.00085253 280.210829 320.98802334 286.03650068 320.97242737 291.86221313 C320.96985451 292.84509992 320.96728166 293.82798671 320.96463084 294.84065795 C320.95936363 296.85136927 320.95407815 298.86208054 320.94877481 300.87279177 C320.91367768 314.43972984 320.88710519 328.00659067 320.88960266 341.57357788 C320.8911954 350.71720619 320.87505277 359.86061898 320.83889604 369.00417829 C320.82049144 373.84096744 320.81104419 378.67739712 320.82337189 383.51421356 C320.8348808 388.07473959 320.82293747 392.63462512 320.79373741 397.19506645 C320.78714221 398.8602044 320.78888495 400.52540184 320.80003548 402.19051552 C320.89183746 417.15315315 317.87572547 429.25138264 307.14009094 440.26742554 C298.52692829 448.28049079 288.00951726 452.38674583 276.33707142 452.3988533 C275.66232544 452.40090594 274.98757945 452.40295857 274.29238662 452.4050734 C272.02706954 452.41073647 269.76181339 452.40928701 267.49649048 452.40786743 C265.85763087 452.41045146 264.2187719 452.41346473 262.57991379 452.41687083 C258.07268714 452.42493959 253.56547641 452.42673034 249.05824339 452.4274683 C244.1985129 452.42931907 239.33879066 452.43686652 234.47906494 452.44360352 C223.85093049 452.45718644 213.22279982 452.46321148 202.59465814 452.46761417 C195.95865502 452.47037664 189.32265336 452.474614 182.68665123 452.47911835 C164.31419752 452.49131091 145.94174497 452.50161028 127.5692873 452.50499344 C125.80541022 452.50532279 125.80541022 452.50532279 124.00589926 452.50565879 C122.82716506 452.50587707 121.64843085 452.50609535 120.43397743 452.50632024 C118.04540654 452.5067637 115.65683565 452.50721027 113.26826477 452.50765991 C112.0834507 452.50788134 110.89863664 452.50810277 109.67791911 452.50833091 C90.47939153 452.51227898 71.2809019 452.52973336 52.08238897 452.55301943 C32.37250459 452.57673283 12.66263925 452.58919528 -7.04725963 452.59036136 C-18.11401328 452.59127812 -29.18071748 452.59703073 -40.2474575 452.61518097 C-49.67100258 452.63058177 -59.09448291 452.63570252 -68.51803818 452.62744287 C-73.32531812 452.62353633 -78.1324677 452.62446623 -82.9397316 452.63850021 C-87.34352132 452.65123866 -91.74708269 452.65004208 -96.15087209 452.6379095 C-97.74106718 452.63595242 -99.33127844 452.63903148 -100.92145082 452.64775386 C-116.13907953 452.72591744 -128.48067208 449.86887066 -139.94194031 439.34555054 C-150.78995534 427.59169311 -152.30199462 415.5098237 -152.18119812 400.30819702 C-152.17875163 398.59573506 -152.17772689 396.88327057 -152.17800903 395.17080688 C-152.17618824 391.49749806 -152.16556091 387.82435903 -152.14833832 384.15109062 C-152.12233885 378.33866659 -152.12350171 372.52644158 -152.12962341 366.713974 C-152.14319374 350.1907671 -152.12549772 333.66774141 -152.06938171 317.1446228 C-152.03858669 308.00793856 -152.03283841 298.87158222 -152.05426764 289.73486763 C-152.06636945 283.96038991 -152.04757409 278.18710881 -152.0057826 272.41278255 C-151.98713221 268.81764007 -151.99777935 265.22302221 -152.01663399 261.62789917 C-152.01952964 259.96545618 -152.01051017 258.30294157 -151.98847008 256.64064217 C-151.63120835 246.29108393 -151.63120835 246.29108393 -156.29637146 237.3813324 C-157.46763094 236.32468271 -158.65333922 235.28356852 -159.85990906 234.26742554 C-167.61480701 223.18200299 -172.16552632 211.64425104 -172.1504364 198.08847046 C-172.15715363 197.20764297 -172.16387085 196.32681549 -172.17079163 195.41929626 C-172.18967428 192.52877038 -172.19369085 189.63847788 -172.19584656 186.74789429 C-172.2022811 184.72301643 -172.20900995 182.6981395 -172.21601868 180.67326355 C-172.22796703 176.4359929 -172.231702 172.19880363 -172.23051453 167.96151733 C-172.23031145 162.55489621 -172.25761327 157.14880135 -172.29205894 151.7423048 C-172.31438965 147.56161645 -172.31835018 143.38105353 -172.31729507 139.20031166 C-172.31964175 137.20817565 -172.32841216 135.21603569 -172.34395981 133.22395897 C-172.44808705 118.50515388 -171.21154617 107.23570077 -161.85990906 95.26742554 C-161.38166687 94.65125366 -160.90342468 94.03508179 -160.41069031 93.40023804 C-152.94522706 84.93812605 -140.80718151 80.0029817 -129.68621635 79.08872604 C-127.46667275 79.02448476 -125.25580417 79.01943504 -123.03544617 79.04037476 C-122.20507843 79.0400827 -121.37471069 79.03979065 -120.5191803 79.03948975 C-117.80842683 79.04086927 -115.09795752 79.05636471 -112.38725281 79.07211304 C-110.49439646 79.07584808 -108.60153817 79.07869273 -106.7086792 79.08068848 C-101.75211653 79.08828628 -96.79567303 79.10790129 -91.8391571 79.13009644 C-86.77122102 79.15063827 -81.70326549 79.15970795 -76.63529968 79.16976929 C-66.71011742 79.19115114 -56.78502319 79.22524006 -46.85990906 79.26742554 C-46.88609314 78.06319946 -46.91227722 76.85897339 -46.93925476 75.61825562 C-47.03069913 71.0914312 -47.08749618 66.56468595 -47.13456726 62.03720093 C-47.15949909 60.08881845 -47.19345755 58.14052741 -47.23710632 56.19247437 C-47.57226563 40.83429207 -46.6025335 28.23486226 -35.85990906 16.26742554 C-35.28627625 15.59066772 -34.71264343 14.91390991 -34.12162781 14.21664429 C-25.23814871 4.45033497 -13.03942952 -0.05906389 0 0 Z M-12.60990906 36.95492554 C-20.64912295 48.79043488 -16.85990906 66.90697291 -16.85990906 79.26742554 C49.80009094 79.26742554 116.46009094 79.26742554 185.14009094 79.26742554 C187.33913897 58.46908361 187.33913897 58.46908361 180.32759094 36.39242554 C179.84677063 35.83812866 179.36595032 35.28383179 178.87055969 34.71273804 C174.62194008 31.16422956 170.26711811 31.01530413 164.89755249 31.00672913 C163.81943657 31.00099081 163.81943657 31.00099081 162.71954054 30.99513656 C160.31676174 30.98483698 157.91422326 30.98879286 155.51142883 30.99276733 C153.78645609 30.98841919 152.06148528 30.98323569 150.33651733 30.97727966 C145.65471991 30.96388982 140.97300322 30.96331096 136.29119039 30.96584296 C132.3820771 30.96691263 128.47298016 30.96202943 124.56387037 30.95723754 C115.34162483 30.94614251 106.11942001 30.945705 96.89717102 30.95175171 C87.38420887 30.95779312 77.87139456 30.94547622 68.35845762 30.92418164 C60.18931894 30.90656773 52.02022732 30.90056393 43.85107034 30.90381938 C38.97271514 30.90563264 34.09446541 30.90299176 29.2161274 30.88910484 C24.62864828 30.87653448 20.04139973 30.8784631 15.45392418 30.89151573 C13.77131701 30.89388275 12.08869365 30.89114233 10.40610504 30.88289261 C8.10700682 30.87243384 5.80868353 30.8805182 3.50961304 30.89320374 C2.22375337 30.89303599 0.9378937 30.89286825 -0.38693142 30.89269543 C-5.66946841 31.46267481 -8.84284574 33.27347729 -12.60990906 36.95492554 Z M-138.17240906 115.51742554 C-141.45776466 120.87133837 -142.1105972 126.23222367 -142.11869812 132.42098999 C-142.12220276 133.09845276 -142.1257074 133.77591553 -142.12931824 134.47390747 C-142.13805356 136.69294774 -142.13231372 138.91166378 -142.12553406 141.13070679 C-142.12688354 142.68858399 -142.12882642 144.24646078 -142.1313324 145.80433655 C-142.13427297 149.0631513 -142.13002222 152.32185605 -142.12065125 155.58065796 C-142.10928587 159.73287682 -142.1158044 163.88483623 -142.12779617 168.03704548 C-142.13506808 171.25348315 -142.13270205 174.46986066 -142.12754059 177.68630028 C-142.1262173 179.21592427 -142.12780486 180.74555392 -142.13249969 182.27517128 C-142.17098169 198.341417 -140.26136195 210.06541225 -129.07084656 222.20883179 C-89.49319882 259.05939779 -19.57867838 268.86583287 32.14009094 270.26742554 C32.16587219 268.96547241 32.19165344 267.66351929 32.21821594 266.32211304 C32.27451796 264.59551798 32.33186482 262.86895678 32.39009094 261.14242554 C32.40427063 260.28648804 32.41845032 259.43055054 32.43305969 258.54867554 C32.64429853 253.05646563 33.24615036 249.45404793 37.14009094 245.26742554 C42.22128401 242.62832153 46.41534698 241.82701975 52.15156555 241.8633728 C52.92002304 241.85650955 53.68848053 241.8496463 54.48022461 241.84257507 C57.00115335 241.82438819 59.52145491 241.82813279 62.04243469 241.83383179 C63.8068868 241.82926609 65.57133714 241.82395936 67.33578491 241.81794739 C71.02673078 241.80903222 74.71746008 241.81142119 78.40840149 241.82138062 C83.12375375 241.83286833 87.8383569 241.81265391 92.5536108 241.78346348 C96.19548237 241.76506266 99.83717569 241.76540165 103.47908211 241.771101 C105.21690993 241.77125374 106.95475019 241.76524873 108.69253349 241.75280952 C111.12856583 241.7378272 113.56323044 241.74862819 115.9992218 241.76571655 C116.70752136 241.75604858 117.41582092 241.74638062 118.14558411 241.73641968 C123.56689911 241.81551891 127.64797487 243.37379384 132.14009094 246.26742554 C136.02195646 250.50570984 135.68478619 255.60846343 135.82759094 261.07992554 C135.8617511 261.96357788 135.89591125 262.84723022 135.93110657 263.75765991 C136.01319528 265.9271472 136.07832973 268.09726443 136.14009094 270.26742554 C148.01229604 269.76153986 159.69054729 268.76624755 171.45259094 267.07992554 C172.60705215 266.9166124 172.60705215 266.9166124 173.78483582 266.75 C214.96557037 260.88439914 273.41811078 252.16829517 301.64399719 217.46664429 C307.89199289 208.28225375 310.23924138 200.16019958 310.30122375 189.09799194 C310.30618866 188.41892288 310.31115356 187.73985382 310.31626892 187.04020691 C310.33075221 184.81645661 310.33766825 182.59277755 310.34321594 180.36898804 C310.34604332 179.60332897 310.3488707 178.83766991 310.35178375 178.04880905 C310.36671808 173.99895642 310.37598458 169.94913889 310.38032532 165.89926147 C310.38580972 161.73792247 310.40985348 157.57691068 310.43829727 153.41567421 C310.45700511 150.194998 310.46213351 146.97439949 310.46366119 143.75367355 C310.46666854 142.22041404 310.47463145 140.68715525 310.48784637 139.15394974 C311.00644948 126.12287878 311.00644948 126.12287878 305.75880432 114.66259766 C300.74401993 110.16675701 296.51528419 110.14228536 290.01445293 110.13599777 C289.29268754 110.13394514 288.57092215 110.1318925 287.82728508 110.12977767 C285.39602949 110.12409958 282.9648304 110.12556591 280.53356934 110.12698364 C278.77794034 110.12440048 277.02231194 110.12138745 275.26668435 110.11798024 C270.43216266 110.1099014 265.59765581 110.10812018 260.76312816 110.10738277 C255.55305957 110.10553378 250.3429987 110.09798727 245.13293457 110.09124756 C233.73637172 110.07765788 222.33981239 110.07163866 210.94324279 110.0672369 C203.83003334 110.0644758 196.71682525 110.06023872 189.60361671 110.05573273 C169.91699274 110.04353971 150.23036985 110.03324015 130.54374218 110.02985764 C129.2834412 110.02963807 128.02314023 110.0294185 126.72464832 110.02919228 C124.82962747 110.02886487 124.82962747 110.02886487 122.89632338 110.02853084 C120.33622181 110.02808737 117.77612024 110.0276408 115.21601868 110.02719116 C113.94611496 110.02696973 112.67621125 110.0267483 111.3678256 110.02652016 C90.78337228 110.02257078 70.19895433 110.00511262 49.61451467 109.98183164 C28.49103102 109.95813341 7.36756513 109.9456565 -13.75593203 109.94448972 C-25.62017314 109.94357215 -37.48436815 109.93779914 -49.34859657 109.9196701 C-59.44967576 109.90428981 -69.5506946 109.89913644 -79.65178327 109.90740821 C-84.80702708 109.91132192 -89.96214929 109.91034991 -95.11737823 109.89635086 C-99.83561785 109.8836554 -104.55364396 109.88477104 -109.27188309 109.89694157 C-110.97981958 109.89890613 -112.68777097 109.89578529 -114.39568648 109.88709721 C-116.71629994 109.87603866 -119.03615535 109.88346872 -121.35674763 109.89548874 C-122.64600818 109.89489165 -123.93526873 109.89429456 -125.26359779 109.89367938 C-130.43295239 110.43090385 -134.37196963 111.81970069 -138.17240906 115.51742554 Z M-121.85990906 265.26742554 C-121.90665737 283.66102102 -121.94191178 302.05460106 -121.9635334 320.44824314 C-121.97384012 328.98898366 -121.98788892 337.52968724 -122.01078796 346.07040405 C-122.03074032 353.5156451 -122.04362989 360.9608594 -122.04808605 368.40612644 C-122.0506903 372.34728269 -122.05679885 376.2883624 -122.07136917 380.22949409 C-122.08498225 383.9419134 -122.08912419 387.6542249 -122.08612442 391.36666679 C-122.0869337 393.37278496 -122.0976758 395.37889148 -122.10874939 397.38497925 C-122.38074164 407.43805863 -122.38074164 407.43805863 -118.20365906 416.22836304 C-117.59522156 416.69500366 -116.98678406 417.16164429 -116.35990906 417.64242554 C-115.75147156 418.12453491 -115.14303406 418.60664429 -114.51615906 419.10336304 C-111.09386392 421.50865537 -108.70409084 421.39533847 -104.53979874 421.40164661 C-103.88082289 421.40399884 -103.22184704 421.40635107 -102.54290223 421.40877458 C-100.31320743 421.41548318 -98.08357065 421.41500581 -95.85386658 421.41459656 C-94.24774357 421.41789403 -92.6416214 421.42161934 -91.03550029 421.42573804 C-86.60498763 421.43577946 -82.17448853 421.43947826 -77.7439661 421.44212735 C-72.97219323 421.44602406 -68.20043116 421.45560281 -63.42866516 421.46434021 C-51.89655794 421.48412241 -40.36444982 421.49417299 -28.83232987 421.503068 C-23.40582034 421.50744797 -17.97931179 421.51281552 -12.55280304 421.51805687 C5.47897514 421.53507079 23.51075271 421.54956594 41.54253769 421.55680561 C46.22414399 421.5587156 50.90575029 421.56063592 55.58735657 421.56259155 C57.33280891 421.56331716 57.33280891 421.56331716 59.11352292 421.56405743 C77.97223039 421.57236133 96.83087451 421.59770361 115.6895543 421.63017223 C135.0377202 421.66321286 154.38585386 421.68125165 173.73404813 421.68444985 C184.60288243 421.68661771 195.47162435 421.69540666 206.34043121 421.72091103 C215.59509414 421.74257712 224.84964224 421.75068865 234.10432765 421.74094424 C238.82809619 421.73638767 243.55162763 421.73836434 248.27536392 421.75770569 C252.59832189 421.77525354 256.92086829 421.77440823 261.24383011 421.7588084 C262.8091476 421.75641952 264.37449297 421.76082177 265.93976769 421.77263705 C268.0658861 421.78769388 270.19053444 421.77812887 272.31661606 421.76241016 C273.49798102 421.76338697 274.67934598 421.76436378 275.89650989 421.76537019 C280.93125549 420.99245143 284.00910696 418.45954379 287.45259094 414.82992554 C290.27851483 410.53870778 290.26480006 406.31343956 290.26034546 401.27528381 C290.26172012 400.07360062 290.26309479 398.87191742 290.26451111 397.63381958 C290.26091583 396.32399109 290.25732056 395.0141626 290.25361633 393.66464233 C290.25333412 392.26490786 290.25349287 390.86517323 290.25405884 389.46543884 C290.25434547 385.67245445 290.24847035 381.87950176 290.24148488 378.08652472 C290.23522908 374.12003729 290.23464578 370.1535491 290.23345947 366.1870575 C290.23035273 358.67903194 290.22214818 351.17102097 290.21210998 343.66300184 C290.20092847 335.11407836 290.19543326 326.56515419 290.19041455 318.01622522 C290.17996503 300.43328356 290.16237828 282.85035609 290.14009094 265.26742554 C286.62200538 266.42560796 283.20729585 267.60777518 279.83930969 269.15023804 C234.12110842 289.67545955 184.60505354 296.65544292 135.14009094 301.26742554 C134.94818176 301.93709351 134.75627258 302.60676147 134.55854797 303.29672241 C134.29928528 304.18424194 134.04002258 305.07176147 133.77290344 305.98617554 C133.51911926 306.86209351 133.26533508 307.73801147 133.00386047 308.64047241 C129.03593786 320.70798156 120.2374391 329.97958101 109.14009094 335.86117554 C96.22627619 341.9145262 79.70544841 342.52607875 65.95259094 338.70492554 C52.67423163 333.73636084 42.75382192 325.30683032 36.64009094 312.45492554 C34.99895548 308.71222495 33.88740365 305.27324146 33.14009094 301.26742554 C31.96430481 301.14214478 30.78851868 301.01686401 29.57710266 300.88778687 C-20.62627927 295.50590963 -70.21314271 288.81183655 -116.30912781 266.88461304 C-119.51297656 265.12926497 -119.51297656 265.12926497 -121.85990906 265.26742554 Z M62.14009094 272.26742554 C61.15603571 290.03663926 61.15603571 290.03663926 68.14009094 305.26742554 C75.52321605 310.84243837 82.10589674 310.98775996 91.14009094 310.26742554 C97.50070984 308.48062572 100.91750593 304.89374845 104.32759094 299.32992554 C107.61405663 290.98735878 106.14009094 280.59433386 106.14009094 272.26742554 C91.62009094 272.26742554 77.10009094 272.26742554 62.14009094 272.26742554 Z " fill="#000000" transform="translate(171.8599090576172,29.732574462890625)"/>
</svg>
